<?xml version="1.0" encoding="UTF-8"?>
<svg version="1.1" xmlns="http://www.w3.org/2000/svg" width="500" height="500">
<path d="M0 0 C0.83085658 -0.00226556 1.66171317 -0.00453111 2.51774722 -0.00686532 C5.27631641 -0.01314892 8.03483575 -0.01237961 10.79341125 -0.0115509 C12.78185082 -0.01454595 14.7702898 -0.01794927 16.75872803 -0.02172852 C22.14326401 -0.03053827 27.52778408 -0.03290538 32.91232657 -0.0335443 C36.28194388 -0.0342566 39.65155717 -0.03639435 43.02117348 -0.03904152 C54.79258606 -0.04828544 66.56398735 -0.05237766 78.33540344 -0.05158997 C89.28197877 -0.05098966 100.22850475 -0.0615347 111.1750676 -0.07733363 C120.59450056 -0.09044062 130.01391745 -0.09577253 139.43335944 -0.09513456 C145.0496528 -0.09488047 150.66590229 -0.09768219 156.28218651 -0.10831261 C161.56899395 -0.1180467 166.85571605 -0.11803659 172.14252663 -0.11079597 C174.07333629 -0.10975666 176.00415142 -0.11207381 177.93495178 -0.11815643 C197.74339423 -0.17647422 216.57917765 1.12064028 233.26728821 13.13371277 C233.26728821 13.79371277 233.26728821 14.45371277 233.26728821 15.13371277 C235.24728821 15.62871277 235.24728821 15.62871277 237.26728821 16.13371277 C237.26728821 16.79371277 237.26728821 17.45371277 237.26728821 18.13371277 C237.92728821 18.13371277 238.58728821 18.13371277 239.26728821 18.13371277 C239.26728821 18.79371277 239.26728821 19.45371277 239.26728821 20.13371277 C239.92728821 20.13371277 240.58728821 20.13371277 241.26728821 20.13371277 C241.26728821 20.79371277 241.26728821 21.45371277 241.26728821 22.13371277 C241.92728821 22.13371277 242.58728821 22.13371277 243.26728821 22.13371277 C243.26728821 22.79371277 243.26728821 23.45371277 243.26728821 24.13371277 C243.92728821 24.13371277 244.58728821 24.13371277 245.26728821 24.13371277 C259.83389336 42.96441255 261.57917426 63.25610624 261.52607727 86.22746277 C261.52879289 88.2166405 261.53235701 90.20581722 261.53669739 92.19499207 C261.54575572 97.55859378 261.54230437 102.92211789 261.53593922 108.28572083 C261.53084508 113.92190242 261.5355801 119.55807776 261.53871155 125.19425964 C261.54234129 134.65586021 261.53757819 144.11742947 261.5280304 153.57902527 C261.51714778 164.48878743 261.52067406 175.39847482 261.53168321 186.30823517 C261.5407844 195.70654181 261.54202754 205.10482605 261.53680587 214.50313568 C261.53370171 220.10258203 261.53323381 225.70199333 261.53987885 231.30143738 C261.54569302 236.56779956 261.5415815 241.83406614 261.53009033 247.10041809 C261.5274654 249.02316632 261.52817135 250.94592272 261.53261566 252.8686676 C261.57289917 272.08052268 260.71684226 292.2888258 248.26728821 308.13371277 C247.60728821 308.13371277 246.94728821 308.13371277 246.26728821 308.13371277 C245.93728821 309.45371277 245.60728821 310.77371277 245.26728821 312.13371277 C244.60728821 312.13371277 243.94728821 312.13371277 243.26728821 312.13371277 C243.26728821 312.79371277 243.26728821 313.45371277 243.26728821 314.13371277 C242.60728821 314.13371277 241.94728821 314.13371277 241.26728821 314.13371277 C241.26728821 314.79371277 241.26728821 315.45371277 241.26728821 316.13371277 C240.60728821 316.13371277 239.94728821 316.13371277 239.26728821 316.13371277 C239.26728821 316.79371277 239.26728821 317.45371277 239.26728821 318.13371277 C238.60728821 318.13371277 237.94728821 318.13371277 237.26728821 318.13371277 C237.26728821 318.79371277 237.26728821 319.45371277 237.26728821 320.13371277 C235.25676005 321.68896936 233.27699703 323.07901133 231.14228821 324.44621277 C230.20461609 325.04852722 230.20461609 325.04852722 229.2480011 325.66300964 C218.70440763 332.18867829 207.64211573 335.28684741 195.3120575 335.27415466 C194.40899797 335.27712579 193.50593845 335.28009691 192.57551348 335.28315806 C189.54877145 335.29183122 186.52206903 335.29335215 183.49531555 335.29484558 C181.32526058 335.29947478 179.15520641 335.30449958 176.9851532 335.30989075 C171.08820485 335.32300809 165.19126789 335.32945858 159.29430723 335.33390141 C155.60847667 335.33683359 151.92264922 335.34093871 148.23682022 335.34540558 C136.70006016 335.35907962 125.16330719 335.36874637 113.62653959 335.37260747 C100.31804158 335.37708619 87.00969126 335.39462588 73.70122182 335.42360806 C63.40888776 335.44524221 53.11658258 335.4553127 42.82422602 335.45664859 C36.67977293 335.4576955 30.5354165 335.46357897 24.3909874 335.4814682 C18.60764908 335.49797843 12.82447977 335.50008997 7.04112625 335.49132919 C4.92361243 335.49056037 2.80608942 335.49488106 0.68859863 335.50478745 C-19.85960693 335.59524723 -19.85960693 335.59524723 -28.73271179 332.13371277 C-29.52195856 331.83309559 -30.31120533 331.53247841 -31.12436867 331.22275162 C-38.7978202 328.16901531 -46.41645464 323.44879163 -52.73271179 318.13371277 C-52.73271179 317.47371277 -52.73271179 316.81371277 -52.73271179 316.13371277 C-53.39271179 316.13371277 -54.05271179 316.13371277 -54.73271179 316.13371277 C-54.73271179 315.47371277 -54.73271179 314.81371277 -54.73271179 314.13371277 C-55.39271179 314.13371277 -56.05271179 314.13371277 -56.73271179 314.13371277 C-67.46228271 301.85753703 -73.41744623 287.66343685 -74.29785156 271.46369934 C-74.35973332 270.3581287 -74.35973332 270.3581287 -74.42286521 269.2302233 C-74.87918987 260.33638829 -74.88082743 251.44469527 -74.87797546 242.54142761 C-74.88097625 240.64209936 -74.88438086 238.7427717 -74.88815308 236.84344482 C-74.89689897 231.73823197 -74.89932704 226.63303592 -74.89996886 221.5278163 C-74.90068419 218.32833784 -74.90282744 215.12886355 -74.90546608 211.92938614 C-74.9146849 200.74033084 -74.9188049 189.55128737 -74.91801453 178.36222839 C-74.9174131 167.97331756 -74.92798655 157.58445854 -74.94375819 147.19556081 C-74.95687069 138.235395 -74.96219694 129.27524607 -74.96155912 120.31507075 C-74.96130543 114.9811149 -74.96408526 109.64720531 -74.97473717 104.31325912 C-74.98448219 99.29801789 -74.98445384 94.28286657 -74.97722054 89.26762199 C-74.97618296 87.43881663 -74.97848777 85.61000546 -74.98458099 83.78120995 C-75.04467759 64.47864019 -74.23949073 44.05143141 -61.73271179 28.13371277 C-61.07271179 28.13371277 -60.41271179 28.13371277 -59.73271179 28.13371277 C-59.40271179 26.81371277 -59.07271179 25.49371277 -58.73271179 24.13371277 C-58.07271179 24.13371277 -57.41271179 24.13371277 -56.73271179 24.13371277 C-56.73271179 23.47371277 -56.73271179 22.81371277 -56.73271179 22.13371277 C-56.07271179 22.13371277 -55.41271179 22.13371277 -54.73271179 22.13371277 C-54.73271179 21.47371277 -54.73271179 20.81371277 -54.73271179 20.13371277 C-54.07271179 20.13371277 -53.41271179 20.13371277 -52.73271179 20.13371277 C-52.73271179 19.47371277 -52.73271179 18.81371277 -52.73271179 18.13371277 C-52.07271179 18.13371277 -51.41271179 18.13371277 -50.73271179 18.13371277 C-50.73271179 17.47371277 -50.73271179 16.81371277 -50.73271179 16.13371277 C-49.41271179 15.80371277 -48.09271179 15.47371277 -46.73271179 15.13371277 C-46.73271179 14.47371277 -46.73271179 13.81371277 -46.73271179 13.13371277 C-32.02226237 3.79518401 -17.44354379 -0.0356379 0 0 Z " fill="#0C2B49" transform="translate(156.7327117919922,81.86628723144531)"/>
<path d="M0 0 C16.17 0 32.34 0 49 0 C49.06793603 16.95160831 49.12310858 33.90309894 49.15543652 50.85480595 C49.17085139 58.72722845 49.19183687 66.59955984 49.22631836 74.47192383 C49.2563867 81.3400574 49.27561401 88.20812493 49.28226548 95.0763225 C49.28614849 98.70702737 49.29515915 102.33754346 49.31719017 105.96818733 C49.48633904 134.96177692 49.48633904 134.96177692 46 147 C45.78680115 147.78640869 45.57360229 148.57281738 45.35394287 149.38305664 C42.15761048 160.47251909 37.50641482 169.57499339 31 179 C30.34 179.99 29.68 180.98 29 182 C28.34 182 27.68 182 27 182 C26.7628125 182.58007812 26.525625 183.16015625 26.28125 183.7578125 C18.58492965 197.22637312 -2.09633501 203.38793297 -16.01464844 207.61132812 C-25.78541548 210.26850612 -35.81817554 210.18208729 -45.875 210.1875 C-47.06480469 210.19974609 -48.25460938 210.21199219 -49.48046875 210.22460938 C-59.95713906 210.24178424 -69.80294114 209.1156281 -79.6875 205.5625 C-80.86699219 205.15128906 -82.04648438 204.74007812 -83.26171875 204.31640625 C-84.16535156 203.88199219 -85.06898438 203.44757813 -86 203 C-87.02147393 199.9355782 -86.96156046 198.28879046 -86.75 195.125 C-86.69725719 191.11068584 -86.78069819 190.29042673 -89.3125 186.9375 C-91.90368203 184.86639766 -91.90368203 184.86639766 -95 184 C-95 175.75 -95 167.5 -95 159 C-87.7694186 160.60679587 -84.06759462 161.69040293 -78 165 C-78 170.28 -78 175.56 -78 181 C-75.36 181 -72.72 181 -70 181 C-61.00193789 182.90159754 -51.41388745 186.12797773 -45 193 C-42.29033059 191.80774546 -40.25683001 190.43519081 -37.875 188.625 C-29.08948245 182.34697688 -20.64743342 181.41754641 -10 181 C-10 175.39 -10 169.78 -10 164 C-8.82824219 163.62488281 -7.65648437 163.24976563 -6.44921875 162.86328125 C1.47093952 160.29467249 9.13515641 157.64851832 16.65234375 154.03515625 C20.03567837 152.54333649 23.38596326 151.7500831 27 151 C27 150.34 27 149.68 27 149 C26.15695312 148.79697266 26.15695312 148.79697266 25.296875 148.58984375 C15.32222765 146.03498776 5.68478984 142.46830754 -4 139 C-4.33 140.32 -4.66 141.64 -5 143 C-12.51221223 141.54602344 -19.06809611 139.07165144 -26.10400391 136.11621094 C-28.48036983 135.12568365 -30.86456569 134.15595891 -33.25 133.1875 C-34.01884521 132.86112549 -34.78769043 132.53475098 -35.57983398 132.19848633 C-41.95661593 129.63018529 -46.15278366 130.14394375 -52.5625 132.5625 C-53.49320313 132.90796875 -54.42390625 133.2534375 -55.3828125 133.609375 C-58.34377249 134.74771383 -61.29376312 135.9079658 -64.2421875 137.078125 C-65.17732178 137.44478271 -66.11245605 137.81144043 -67.07592773 138.18920898 C-68.96728696 138.93164937 -70.85493696 139.68361696 -72.73852539 140.44555664 C-73.61758545 140.78965576 -74.49664551 141.13375488 -75.40234375 141.48828125 C-76.58558228 141.96068237 -76.58558228 141.96068237 -77.79272461 142.44262695 C-80.26439545 143.06676416 -81.61859893 142.82661605 -84 142 C-83.67 140.35 -83.34 138.7 -83 137 C-82.05640625 136.69707031 -81.1128125 136.39414062 -80.140625 136.08203125 C-71.12988998 133.15433858 -62.42963282 129.77291725 -53.7265625 126.01953125 C-46.93676484 123.24898163 -41.5860884 123.43925324 -34.796875 126.046875 C-33.65089844 126.48 -32.50492187 126.913125 -31.32421875 127.359375 C-30.14472656 127.81828125 -28.96523438 128.2771875 -27.75 128.75 C-25.41154083 129.64084159 -23.07300007 130.53146904 -20.734375 131.421875 C-19.60966797 131.85435547 -18.48496094 132.28683594 -17.32617188 132.73242188 C-12.57092609 134.54460891 -7.78786856 136.27634536 -3 138 C-1.24673902 129.96974244 -0.69659244 122.29840307 -0.68115234 114.09301758 C-0.67110672 112.85270782 -0.6610611 111.61239807 -0.65071106 110.33450317 C-0.6253112 106.96952329 -0.60834028 103.60470818 -0.59528303 100.23967195 C-0.57953686 96.70959444 -0.55278399 93.17959976 -0.5272522 89.64958191 C-0.48066601 82.98115305 -0.44382509 76.31270825 -0.41057932 69.64420098 C-0.3722145 62.04549 -0.32284251 54.44686262 -0.27259517 46.84822237 C-0.16957555 31.23220287 -0.08167129 15.61614797 0 0 Z " fill="#0BDAF9" transform="translate(294,145)"/>
<path d="M0 0 C16.17 0 32.34 0 49 0 C49.029729 5.68440308 49.029729 5.68440308 49.06005859 11.48364258 C49.1270579 24.02458742 49.20459853 36.56544867 49.28752708 49.10629749 C49.33753532 56.70748214 49.38397903 64.30865663 49.421875 71.90991211 C49.45493485 78.53927915 49.49484205 85.16856458 49.54279006 91.79784125 C49.5679168 95.30425255 49.58973789 98.81061068 49.60334396 102.31708717 C49.61870443 106.24249507 49.64936013 110.16770681 49.68115234 114.09301758 C49.68331253 115.24101334 49.68547272 116.38900909 49.68769836 117.5717926 C49.75986967 124.57797561 50.5051359 131.15324767 52 138 C45.59424166 141.03530429 39.12702101 143.80103359 32.5 146.3125 C31.45875977 146.71202881 31.45875977 146.71202881 30.39648438 147.11962891 C27.45589934 148.21838038 25.16593293 149 22 149 C22 149.66 22 150.32 22 151 C22.58007812 151.19335938 23.16015625 151.38671875 23.7578125 151.5859375 C28.171875 153.05729167 32.5859375 154.52864583 37 156 C37.12368591 159.93245085 37.21437336 163.86414798 37.2746582 167.7980957 C37.31214374 169.79353555 37.37567535 171.78843052 37.43945312 173.78320312 C37.45556641 175.03681641 37.47167969 176.29042969 37.48828125 177.58203125 C37.51446533 178.73936768 37.54064941 179.8967041 37.56762695 181.08911133 C37 184 37 184 34.61401367 185.8269043 C33.75138916 186.21402588 32.88876465 186.60114746 32 187 C30.8553125 187.5878125 30.8553125 187.5878125 29.6875 188.1875 C29.130625 188.455625 28.57375 188.72375 28 189 C15.9413064 179.20613717 9.70421303 167.52863358 4.75 152.9375 C4.50378906 152.21836426 4.25757813 151.49922852 4.00390625 150.75830078 C0.62562022 140.39713487 -0.29191114 130.40348477 -0.22705078 119.54223633 C-0.22734283 118.24340515 -0.22763489 116.94457397 -0.22793579 115.60638428 C-0.2285045 112.08023169 -0.21682918 108.55421799 -0.20278788 105.02809739 C-0.19019931 101.32991144 -0.18910366 97.63172153 -0.18673706 93.93351746 C-0.18054599 86.94628307 -0.16416765 79.95911203 -0.14403808 72.97190541 C-0.12160477 65.01050481 -0.11066705 57.04910103 -0.10064721 49.08767664 C-0.07979903 32.72507495 -0.04315284 16.36256039 0 0 Z " fill="#0BD9F8" transform="translate(157,145)"/>
<path d="M0 0 C16.17 0 32.34 0 49 0 C49 43.56 49 87.12 49 132 C48.67 132 48.34 132 48 132 C48 88.77 48 45.54 48 1 C32.49 1 16.98 1 1 1 C1 43.9 1 86.8 1 131 C0.34 131 -0.32 131 -1 131 C-0.67 133.64 -0.34 136.28 0 139 C-1.32 139 -2.64 139 -4 139 C-4.33 140.32 -4.66 141.64 -5 143 C-12.51221223 141.54602344 -19.06809611 139.07165144 -26.10400391 136.11621094 C-28.48036983 135.12568365 -30.86456569 134.15595891 -33.25 133.1875 C-34.01884521 132.86112549 -34.78769043 132.53475098 -35.57983398 132.19848633 C-41.95661593 129.63018529 -46.15278366 130.14394375 -52.5625 132.5625 C-53.49320313 132.90796875 -54.42390625 133.2534375 -55.3828125 133.609375 C-58.34377249 134.74771383 -61.29376312 135.9079658 -64.2421875 137.078125 C-65.17732178 137.44478271 -66.11245605 137.81144043 -67.07592773 138.18920898 C-68.96728696 138.93164937 -70.85493696 139.68361696 -72.73852539 140.44555664 C-73.61758545 140.78965576 -74.49664551 141.13375488 -75.40234375 141.48828125 C-76.58558228 141.96068237 -76.58558228 141.96068237 -77.79272461 142.44262695 C-80.26439545 143.06676416 -81.61859893 142.82661605 -84 142 C-83.67 140.35 -83.34 138.7 -83 137 C-82.05640625 136.69707031 -81.1128125 136.39414062 -80.140625 136.08203125 C-71.12988998 133.15433858 -62.42963282 129.77291725 -53.7265625 126.01953125 C-46.93676484 123.24898163 -41.5860884 123.43925324 -34.796875 126.046875 C-33.65089844 126.48 -32.50492187 126.913125 -31.32421875 127.359375 C-30.14472656 127.81828125 -28.96523438 128.2771875 -27.75 128.75 C-25.41154083 129.64084159 -23.07300007 130.53146904 -20.734375 131.421875 C-19.60966797 131.85435547 -18.48496094 132.28683594 -17.32617188 132.73242188 C-12.57092609 134.54460891 -7.78786856 136.27634536 -3 138 C-1.24673902 129.96974244 -0.69659244 122.29840307 -0.68115234 114.09301758 C-0.67110672 112.85270782 -0.6610611 111.61239807 -0.65071106 110.33450317 C-0.6253112 106.96952329 -0.60834028 103.60470818 -0.59528303 100.23967195 C-0.57953686 96.70959444 -0.55278399 93.17959976 -0.5272522 89.64958191 C-0.48066601 82.98115305 -0.44382509 76.31270825 -0.41057932 69.64420098 C-0.3722145 62.04549 -0.32284251 54.44686262 -0.27259517 46.84822237 C-0.16957555 31.23220287 -0.08167129 15.61614797 0 0 Z " fill="#1FC5E3" transform="translate(294,145)"/>
<path d="M0 0 C1.9375 1.4375 1.9375 1.4375 3 4 C2.84197193 5.34889511 2.62899476 6.6917221 2.3828125 8.02734375 C1.68262649 13.57798033 3.12595385 17.91630932 4.9375 23.125 C6.92052929 28.95536994 8.41109023 33.80847772 8 40 C6.35 39.67 4.7 39.34 3 39 C2.01 35.37 1.02 31.74 0 28 C-0.33 32.95 -0.66 37.9 -1 43 C-2.98 43.495 -2.98 43.495 -5 44 C-6.94090826 42.05909174 -6.39919435 38.52706098 -6.5625 35.9375 C-6.68818359 34.00197266 -6.68818359 34.00197266 -6.81640625 32.02734375 C-6.87699219 31.02832031 -6.93757812 30.02929688 -7 29 C-7.99 32.63 -8.98 36.26 -10 40 C-11.65 40 -13.3 40 -15 40 C-14.66379863 33.83630813 -13.29185394 28.46998025 -11.4375 22.625 C-9.5332687 16.60251423 -8.50506141 11.47952146 -9.1171875 5.1015625 C-9 3 -9 3 -7.6953125 1.23828125 C-5.06643042 -0.68189299 -3.1524839 -0.45973724 0 0 Z " fill="#0ADBF9" transform="translate(200,334)"/>
<path d="M0 0 C0.66 0 1.32 0 2 0 C2 67.32 2 134.64 2 204 C1.34 204.33 0.68 204.66 0 205 C-0.15392016 179.15728018 -0.30195294 153.31453245 -0.4429636 127.47173882 C-0.50857372 115.47267779 -0.5761154 103.47363343 -0.64819336 91.47460938 C-0.71100644 81.01712194 -0.77020653 70.55962139 -0.82505554 60.10208905 C-0.85422808 54.56416268 -0.8852183 49.02625987 -0.92053413 43.48836899 C-0.9537142 38.27644079 -0.98206498 33.06450868 -1.00670624 27.85253334 C-1.01660386 25.93932528 -1.02826842 24.02612543 -1.04183006 22.11293983 C-1.06008252 19.50073771 -1.07197548 16.88858046 -1.08229065 14.27633667 C-1.08909444 13.51951501 -1.09589823 12.76269335 -1.10290819 11.98293769 C-1.11159376 7.87896269 -0.80240052 4.02569566 0 0 Z " fill="#676E7D" transform="translate(416,148)"/>
<path d="M0 0 C16.17 0 32.34 0 49 0 C49 43.56 49 87.12 49 132 C48.67 132 48.34 132 48 132 C48 88.77 48 45.54 48 1 C32.49 1 16.98 1 1 1 C1 43.9 1 86.8 1 131 C0.34 131 -0.32 131 -1 131 C-0.67 133.64 -0.34 136.28 0 139 C-1.32 139 -2.64 139 -4 139 C-4.495 140.98 -4.495 140.98 -5 143 C-9.83628305 142.00956295 -14.47618873 141.04301154 -19 139 C-19 138.67 -19 138.34 -19 138 C-17.02 138 -15.04 138 -13 138 C-12.67 137.01 -12.34 136.02 -12 135 C-9.03 135.99 -6.06 136.98 -3 138 C-1.24673902 129.96974244 -0.69659244 122.29840307 -0.68115234 114.09301758 C-0.67110672 112.85270782 -0.6610611 111.61239807 -0.65071106 110.33450317 C-0.6253112 106.96952329 -0.60834028 103.60470818 -0.59528303 100.23967195 C-0.57953686 96.70959444 -0.55278399 93.17959976 -0.5272522 89.64958191 C-0.48066601 82.98115305 -0.44382509 76.31270825 -0.41057932 69.64420098 C-0.3722145 62.04549 -0.32284251 54.44686262 -0.27259517 46.84822237 C-0.16957555 31.23220287 -0.08167129 15.61614797 0 0 Z " fill="#23B1CF" transform="translate(294,145)"/>
<path d="M0 0 C0.33 0 0.66 0 1 0 C1.85079756 7.89201066 2.16454615 15.69705294 2.20532227 23.6315918 C2.21522186 24.84264084 2.22512146 26.05368988 2.23532104 27.30143738 C2.26128593 30.58579315 2.28323793 33.87014477 2.30332303 37.15454078 C2.32537268 40.60051412 2.35266741 44.04644607 2.37937927 47.49238586 C2.42905212 54.00145154 2.47408387 60.5105405 2.51740164 67.01965123 C2.5669929 74.43696305 2.62182898 81.85423329 2.67708123 89.27150476 C2.7905106 104.51429797 2.89743276 119.75712959 3 135 C3.99 135 4.98 135 6 135 C6.33 134.01 6.66 133.02 7 132 C7.99 131.67 8.98 131.34 10 131 C10.33 132.32 10.66 133.64 11 135 C10.030625 135.45375 9.06125 135.9075 8.0625 136.375 C4.92920418 137.65786221 4.92920418 137.65786221 4 140 C2.35 140 0.7 140 -1 140 C0.485 139.01 0.485 139.01 2 138 C1.85825914 137.35567866 1.71651829 136.71135733 1.57048225 136.0475111 C0.07098231 128.65953934 -0.27417403 121.61640315 -0.22705078 114.09301758 C-0.22734283 112.85270782 -0.22763489 111.61239807 -0.22793579 110.33450317 C-0.22679011 106.96946038 -0.21683517 103.60467013 -0.20278788 100.23967195 C-0.1901929 96.70964967 -0.18910317 93.17962319 -0.18673706 89.64958191 C-0.18054784 82.98108975 -0.16417206 76.31266403 -0.14403808 69.64420098 C-0.12159894 62.04555088 -0.1106656 54.44689742 -0.10064721 46.84822237 C-0.07980324 31.23210993 -0.04467762 15.61606357 0 0 Z " fill="#024768" transform="translate(206,145)"/>
<path d="M0 0 C0.33 0 0.66 0 1 0 C1 9.57 1 19.14 1 29 C4.465 28.505 4.465 28.505 8 28 C10.80189446 29.76641172 12.51524911 31.03049822 14 34 C14.07065617 36.04055005 14.08421976 38.08334257 14.0625 40.125 C14.05347656 41.22070312 14.04445312 42.31640625 14.03515625 43.4453125 C14.02355469 44.28835938 14.01195312 45.13140625 14 46 C16.64 46.99 19.28 47.98 22 49 C18.1273408 49.9681648 14.96388638 50.07622858 11 50 C11 52.31 11 54.62 11 57 C10.67 57 10.34 57 10 57 C7.9031501 50.66206388 6.51929346 45.50003926 7.87109375 38.875 C8.21496931 36.66111941 8.21496931 36.66111941 6 34 C4.02252878 33.63702064 4.02252878 33.63702064 1.875 33.8125 C0.59625 33.874375 -0.6825 33.93625 -2 34 C-2.33 36.64 -2.66 39.28 -3 42 C-3.33 42 -3.66 42 -4 42 C-4.125 34.25 -4.125 34.25 -3 32 C-4.98 32.495 -4.98 32.495 -7 33 C-5.1875 30.5 -5.1875 30.5 -3 28 C-2.01 28 -1.02 28 0 28 C0 18.76 0 9.52 0 0 Z " fill="#023A59" transform="translate(194,301)"/>
<path d="M0 0 C2.35482031 2.30093427 2.98609152 3.47587002 3.07421875 6.796875 C2.88279297 8.25867188 2.88279297 8.25867188 2.6875 9.75 C2.56761719 10.73484375 2.44773438 11.7196875 2.32421875 12.734375 C2.21722656 13.48203125 2.11023438 14.2296875 2 15 C1.34 14.67 0.68 14.34 0 14 C0.33 10.37 0.66 6.74 1 3 C-1.64 2.67 -4.28 2.34 -7 2 C-6.91621094 2.64066406 -6.83242187 3.28132813 -6.74609375 3.94140625 C-5.89515346 11.16901303 -5.92961846 17.24516061 -9 24 C-7.68 24.33 -6.36 24.66 -5 25 C-5 30.28 -5 35.56 -5 41 C-4.01 41 -3.02 41 -2 41 C-2 36.38 -2 31.76 -2 27 C-1.67 27 -1.34 27 -1 27 C-1 32.28 -1 37.56 -1 43 C-2.98 43.495 -2.98 43.495 -5 44 C-6.94090826 42.05909174 -6.39919435 38.52706098 -6.5625 35.9375 C-6.68818359 34.00197266 -6.68818359 34.00197266 -6.81640625 32.02734375 C-6.87699219 31.02832031 -6.93757812 30.02929688 -7 29 C-7.99 32.63 -8.98 36.26 -10 40 C-11.65 40 -13.3 40 -15 40 C-14.66379863 33.83630813 -13.29185394 28.46998025 -11.4375 22.625 C-9.5332687 16.60251423 -8.50506141 11.47952146 -9.1171875 5.1015625 C-9 3 -9 3 -7.6953125 1.23828125 C-5.06643042 -0.68189299 -3.1524839 -0.45973724 0 0 Z " fill="#21C1DD" transform="translate(200,334)"/>
<path d="M0 0 C15.51 0 31.02 0 47 0 C47 0.33 47 0.66 47 1 C31.82 1 16.64 1 1 1 C1.10787762 18.0630489 1.21983802 35.12605418 1.33933926 52.18902493 C1.39468957 60.11110882 1.44817447 68.03319721 1.49731445 75.95532227 C1.54013421 82.85777462 1.58640652 89.76019357 1.63687855 96.66259438 C1.66349736 100.31958698 1.68835079 103.97657289 1.70907402 107.63360405 C1.73223526 111.70948094 1.7631024 115.7852636 1.79467773 119.86108398 C1.8004332 121.08243546 1.80618866 122.30378693 1.81211853 123.56214905 C1.82190735 124.66577789 1.83169617 125.76940674 1.84178162 126.90647888 C1.84823417 127.87159614 1.85468672 128.83671339 1.8613348 129.83107662 C1.75890646 131.9790901 1.75890646 131.9790901 3 133 C3.07258946 135.18639453 3.08373783 137.37500389 3.0625 139.5625 C3.05347656 140.76003906 3.04445312 141.95757812 3.03515625 143.19140625 C3.01775391 144.58166016 3.01775391 144.58166016 3 146 C-1.4289599 139.35656015 -0.13571939 130.41592426 -0.11352539 122.72094727 C-0.11324298 121.38003034 -0.11340231 120.03911325 -0.1139679 118.69819641 C-0.11425375 115.07474586 -0.10839134 111.45132869 -0.10139394 107.82788587 C-0.09512505 104.0349121 -0.09455381 100.2419375 -0.09336853 96.44895935 C-0.09026562 89.27391015 -0.08206628 82.09887626 -0.07201904 74.92383379 C-0.06082557 66.7521241 -0.05533931 58.58041366 -0.05032361 50.4086982 C-0.03988277 33.60578843 -0.02155026 16.80289975 0 0 Z " fill="#1CD3F2" transform="translate(158,146)"/>
<path d="M0 0 C0.66 0.33 1.32 0.66 2 1 C2.8515625 3.72265625 2.8515625 3.72265625 3.625 7.0625 C4.01558594 8.71958984 4.01558594 8.71958984 4.4140625 10.41015625 C4.60742188 11.26480469 4.80078125 12.11945313 5 13 C4.01 13.33 3.02 13.66 2 14 C0.77479736 17.00847418 0.77479736 17.00847418 0 20 C-1.98 19.34 -3.96 18.68 -6 18 C-6.33 16.35 -6.66 14.7 -7 13 C-8.98 13.99 -8.98 13.99 -11 15 C-11.66 14.34 -12.32 13.68 -13 13 C-11.68 13 -10.36 13 -9 13 C-8.814375 11.700625 -8.814375 11.700625 -8.625 10.375 C-8.01941879 7.10486147 -7.11693965 4.12743101 -6 1 C-5.67 1 -5.34 1 -5 1 C-4.67 5.95 -4.34 10.9 -4 16 C-3.01 16 -2.02 16 -1 16 C-0.67 10.72 -0.34 5.44 0 0 Z " fill="#044263" transform="translate(199,361)"/>
<path d="M0 0 C7.81797878 -0.76646851 13.87966848 1.96083411 21 5 C20.67 5.99 20.34 6.98 20 8 C12.77102428 8.64257562 6.42842633 6.21421316 0 3 C0 2.01 0 1.02 0 0 Z " fill="#1DCBEA" transform="translate(261,275)"/>
<path d="M0 0 C0 0.99 0 1.98 0 3 C-2.5 4.6875 -2.5 4.6875 -5 6 C-4.01 6.6496875 -4.01 6.6496875 -3 7.3125 C-2.34 7.869375 -1.68 8.42625 -1 9 C-1 9.99 -1 10.98 -1 12 C-6.32187227 10.78623966 -11.03906272 9.27376292 -16 7 C-16 6.34 -16 5.68 -16 5 C-13.89828133 4.1605118 -11.79353375 3.32860344 -9.6875 2.5 C-8.51574219 2.0359375 -7.34398437 1.571875 -6.13671875 1.09375 C-3 0 -3 0 0 0 Z " fill="#04334F" transform="translate(195,289)"/>
<path d="M0 0 C4.83628305 0.99043705 9.47618873 1.95698846 14 4 C14 4.66 14 5.32 14 6 C-8.36893204 15 -8.36893204 15 -11 15 C-11 14.34 -11 13.68 -11 13 C-7.58255431 9.82098075 -4.58846965 7.24012693 0 6 C0.99 6.33 1.98 6.66 3 7 C2.67 7.66 2.34 8.32 2 9 C2.66 9 3.32 9 4 9 C4 8.34 4 7.68 4 7 C5.32 6.34 6.64 5.68 8 5 C8 4.34 8 3.68 8 3 C6.02 3 4.04 3 2 3 C2 2.34 2 1.68 2 1 C1.34 0.67 0.68 0.34 0 0 Z " fill="#013F5E" transform="translate(307,290)"/>
<path d="M0 0 C2.169342 3.254013 3.0390053 6.00130718 4.125 9.75 C4.47820312 10.94109375 4.83140625 12.1321875 5.1953125 13.359375 C6.00618632 17.0279886 6.14398555 20.25637566 6 24 C4.35 23.67 2.7 23.34 1 23 C0.49528803 21.23050388 -0.00360685 19.45934777 -0.5 17.6875 C-0.7784375 16.70136719 -1.056875 15.71523438 -1.34375 14.69921875 C-2 12 -2 12 -2 9 C-0.515 9.99 -0.515 9.99 1 11 C0.67 7.37 0.34 3.74 0 0 Z " fill="#21BDDB" transform="translate(202,350)"/>
<path d="M0 0 C-0.33 0.66 -0.66 1.32 -1 2 C-3.88211302 2.96070434 -5.69850044 3.10581883 -8.6875 3.0625 C-9.89986328 3.04896484 -9.89986328 3.04896484 -11.13671875 3.03515625 C-12.05904297 3.01775391 -12.05904297 3.01775391 -13 3 C-13 3.66 -13 4.32 -13 5 C-16.61973402 6.31626692 -19.09567131 7 -23 7 C-23 7.66 -23 8.32 -23 9 C-25.31 9.33 -27.62 9.66 -30 10 C-22.4198835 1.51533499 -10.84537733 -0.22133423 0 0 Z " fill="#21C0DC" transform="translate(284,326)"/>
<path d="M0 0 C7.2305814 1.60679587 10.93240538 2.69040293 17 6 C17 11.28 17 16.56 17 22 C16.67 22 16.34 22 16 22 C16 17.05 16 12.1 16 7 C13.1228125 6.319375 13.1228125 6.319375 10.1875 5.625 C6.51197415 4.75552077 4.16566573 4.11044382 1 2 C1 9.59 1 17.18 1 25 C0.67 25 0.34 25 0 25 C0 16.75 0 8.5 0 0 Z " fill="#1BA5C1" transform="translate(199,304)"/>
<path d="M0 0 C-0.99 1.485 -0.99 1.485 -2 3 C3.445 2.01 3.445 2.01 9 1 C6.33273284 3.66726716 3.66490592 4.40327218 0.125 5.6875 C-1.10992187 6.14511719 -2.34484375 6.60273438 -3.6171875 7.07421875 C-6.75627797 7.93330009 -8.06263502 8.21775181 -11 7 C-11 4.6875 -11 4.6875 -10 2 C-6.83937014 0.1591936 -3.42498976 -1.71249488 0 0 Z " fill="#21BAD8" transform="translate(221,280)"/>
<path d="M0 0 C0.21755666 5.4389165 0.10428384 9.87080814 -2 15 C-3.65 15 -5.3 15 -7 15 C-6.89767075 10.81380348 -6.28978077 0 0 0 Z " fill="#18D3F3" transform="translate(192,359)"/>
<path d="M0 0 C0 0.66 0 1.32 0 2 C-6.15370839 3.823321 -11.59646678 4.2361959 -18 4 C-18 4.66 -18 5.32 -18 6 C-21.08325358 6.0582253 -24.16636505 6.09367134 -27.25 6.125 C-28.55904297 6.15013672 -28.55904297 6.15013672 -29.89453125 6.17578125 C-30.73886719 6.18222656 -31.58320313 6.18867188 -32.453125 6.1953125 C-33.22817383 6.20578613 -34.00322266 6.21625977 -34.80175781 6.22705078 C-37.25883539 5.97326556 -38.87311542 5.22444152 -41 4 C-40.1028125 3.9498877 -39.205625 3.89977539 -38.28125 3.84814453 C-34.91869969 3.65665632 -31.55669767 3.45827528 -28.19482422 3.25537109 C-26.74609002 3.16931725 -25.29719474 3.08592868 -23.84814453 3.00537109 C-15.95911292 2.56497719 -7.64458118 0 0 0 Z " fill="#024764" transform="translate(282,351)"/>
<path d="M0 0 C0.66 0.33 1.32 0.66 2 1 C1.95875 1.70125 1.9175 2.4025 1.875 3.125 C1.86447193 6.05384704 1.86447193 6.05384704 3 8.875 C4.12628559 12.39464248 4.1469105 15.32723759 4 19 C2.68 19 1.36 19 0 19 C-0.33 23.62 -0.66 28.24 -1 33 C-1.99 33 -2.98 33 -4 33 C-4 31.35 -4 29.7 -4 28 C-3.34 28 -2.68 28 -2 28 C-2.01160156 27.31292969 -2.02320313 26.62585938 -2.03515625 25.91796875 C-2.04417969 25.01691406 -2.05320313 24.11585938 -2.0625 23.1875 C-2.07410156 22.29417969 -2.08570313 21.40085937 -2.09765625 20.48046875 C-2 18 -2 18 -1 15 C-0.34 15 0.32 15 1 15 C0.67 10.05 0.34 5.1 0 0 Z " fill="#16D7F5" transform="translate(199,342)"/>
<path d="M0 0 C0.33 0 0.66 0 1 0 C1.1687567 2.874891 1.33507115 5.74988896 1.5 8.625 C1.54769531 9.43324219 1.59539062 10.24148438 1.64453125 11.07421875 C1.89013778 15.38987631 2.05598658 19.67503669 2 24 C2.99 24 3.98 24 5 24 C5.33 23.01 5.66 22.02 6 21 C6.99 20.67 7.98 20.34 9 20 C9.33 21.32 9.66 22.64 10 24 C8.5459375 24.680625 8.5459375 24.680625 7.0625 25.375 C3.92920418 26.65786221 3.92920418 26.65786221 3 29 C1.35 29 -0.3 29 -2 29 C-1.01 28.34 -0.02 27.68 1 27 C0.83628906 26.06027344 0.67257813 25.12054688 0.50390625 24.15234375 C-0.19019649 19.2936246 -0.10834309 14.46065789 -0.0625 9.5625 C-0.05798828 8.64017578 -0.05347656 7.71785156 -0.04882812 6.76757812 C-0.03713938 4.51164952 -0.02075455 2.25586033 0 0 Z " fill="#023C5B" transform="translate(207,256)"/>
<path d="M0 0 C1.72880982 -0.05449838 3.45812712 -0.09301688 5.1875 -0.125 C6.15042969 -0.14820313 7.11335937 -0.17140625 8.10546875 -0.1953125 C11 0 11 0 13.29492188 0.98632812 C16.38486187 2.144219 18.88234889 2.31671967 22.17578125 2.4140625 C23.33271484 2.45273437 24.48964844 2.49140625 25.68164062 2.53125 C26.87982422 2.5621875 28.07800781 2.593125 29.3125 2.625 C30.53001953 2.66367187 31.74753906 2.70234375 33.00195312 2.7421875 C36.00115228 2.83628002 39.00034823 2.92192209 42 3 C42 3.33 42 3.66 42 4 C37.58339099 4.0589002 33.16688531 4.09389517 28.75 4.125 C27.51507813 4.14175781 26.28015625 4.15851563 25.0078125 4.17578125 C17.25224857 4.21660001 9.530083 4.05583726 2 2 C1.34 1.34 0.68 0.68 0 0 Z " fill="#24B3CF" transform="translate(220,351)"/>
<path d="M0 0 C-0.34684094 2.51459684 -0.76674925 3.76208423 -2.5625 5.59375 C-5.87069578 7.50232449 -9.02396313 7.56423791 -12.75 7.6875 C-13.44738281 7.72166016 -14.14476562 7.75582031 -14.86328125 7.79101562 C-16.57497108 7.87308295 -18.2874576 7.93822919 -20 8 C-16.64309635 5.76206424 -13.1660716 4.34949662 -9.4375 2.875 C-8.75236328 2.59785156 -8.06722656 2.32070313 -7.36132812 2.03515625 C-2.2533867 0 -2.2533867 0 0 0 Z " fill="#054161" transform="translate(303,343)"/>
<path d="M0 0 C0.33 1.32 0.66 2.64 1 4 C1.66 4.103125 2.32 4.20625 3 4.3125 C6.83841009 5.19213564 10.33096691 6.56969896 14 8 C10.2735915 9.04702186 6.86986958 9.07442057 3 9 C3 11.31 3 13.62 3 16 C2.67 16 2.34 16 2 16 C1.46530198 14.27507022 0.94780825 12.544802 0.4375 10.8125 C0.14746094 9.84957031 -0.14257812 8.88664062 -0.44140625 7.89453125 C-1.02461026 4.87247412 -0.81178385 2.94070045 0 0 Z " fill="#024060" transform="translate(202,342)"/>
<path d="M0 0 C0.33 1.32 0.66 2.64 1 4 C0.34 4 -0.32 4 -1 4 C-1.2165625 5.36125 -1.2165625 5.36125 -1.4375 6.75 C-1.86444062 9.21676804 -2.39431657 11.57726627 -3 14 C-3 14.66 -3 15.32 -3 16 C-3.99 16 -4.98 16 -6 16 C-6.33 16.66 -6.66 17.32 -7 18 C-7.66 18 -8.32 18 -9 18 C-9.33 16.68 -9.66 15.36 -10 14 C-9.34 14 -8.68 14 -8 14 C-7.73445313 13.44828125 -7.46890625 12.8965625 -7.1953125 12.328125 C-5.86117291 9.72960475 -4.38741369 7.24877045 -2.875 4.75 C-2.33617187 3.85796875 -1.79734375 2.9659375 -1.2421875 2.046875 C-0.62730469 1.03367187 -0.62730469 1.03367187 0 0 Z " fill="#04334D" transform="translate(331,313)"/>
<path d="M0 0 C-20.29236971 8.77572861 -20.29236971 8.77572861 -29 10 C-29.66 9.67 -30.32 9.34 -31 9 C-30.18208984 8.74476563 -30.18208984 8.74476563 -29.34765625 8.484375 C-25.3070604 7.18585873 -21.41392402 5.78816115 -17.5625 4 C-5.06542533 -1.68847511 -5.06542533 -1.68847511 0 0 Z " fill="#25C6E1" transform="translate(303,343)"/>
<path d="M0 0 C0.680625 0.515625 1.36125 1.03125 2.0625 1.5625 C5.80118832 3.39207088 8.00443413 2.86178872 12 2 C11.719172 3.98073365 11.42503386 5.95958448 11.125 7.9375 C10.96257812 9.03964844 10.80015625 10.14179688 10.6328125 11.27734375 C10.42398438 12.17582031 10.21515625 13.07429688 10 14 C9.01 14.495 9.01 14.495 8 15 C8 13.02 8 11.04 8 9 C7.34 9 6.68 9 6 9 C5.67 9.66 5.34 10.32 5 11 C5.50603992 8.83125748 5.99983813 7.00032373 7 5 C5.35 5 3.7 5 2 5 C1.34 3.35 0.68 1.7 0 0 Z " fill="#063050" transform="translate(180,330)"/>
<path d="M0 0 C0.66 0 1.32 0 2 0 C2.12368591 3.93245085 2.21437336 7.86414798 2.2746582 11.7980957 C2.31214374 13.79353555 2.37567535 15.78843052 2.43945312 17.78320312 C2.45556641 19.03681641 2.47167969 20.29042969 2.48828125 21.58203125 C2.51446533 22.73936768 2.54064941 23.8967041 2.56762695 25.08911133 C2 28 2 28 -0.38598633 29.8269043 C-1.24861084 30.21402588 -2.11123535 30.60114746 -3 31 C-3.763125 31.391875 -4.52625 31.78375 -5.3125 32.1875 C-5.869375 32.455625 -6.42625 32.72375 -7 33 C-7.66 32.34 -8.32 31.68 -9 31 C-7.35 30.67 -5.7 30.34 -4 30 C-3.67 29.01 -3.34 28.02 -3 27 C-1.68 27 -0.36 27 1 27 C0.67 18.09 0.34 9.18 0 0 Z " fill="#2FCCE7" transform="translate(192,301)"/>
<path d="M0 0 C-0.60903059 3.09305422 -1.59868803 5.19639762 -3.4375 7.75 C-3.86933594 8.36359375 -4.30117188 8.9771875 -4.74609375 9.609375 C-5.15988281 10.06828125 -5.57367188 10.5271875 -6 11 C-6.66 11 -7.32 11 -8 11 C-8.33 11.99 -8.66 12.98 -9 14 C-9.33 13.01 -9.66 12.02 -10 11 C-9.01 10.67 -8.02 10.34 -7 10 C-7.185625 9.236875 -7.37125 8.47375 -7.5625 7.6875 C-8 5 -8 5 -7 2 C-4.39757586 0.35179805 -3.13751221 0 0 0 Z " fill="#1AC9E6" transform="translate(329,316)"/>
<path d="M0 0 C-2.58232914 0.98188561 -5.16578683 1.96059589 -7.75 2.9375 C-8.84441406 3.35418945 -8.84441406 3.35418945 -9.9609375 3.77929688 C-10.66992188 4.04677734 -11.37890625 4.31425781 -12.109375 4.58984375 C-12.75874023 4.83597412 -13.40810547 5.08210449 -14.07714844 5.33569336 C-16.032576 6.01125435 -17.98665757 6.52800046 -20 7 C-19.67 5.68 -19.34 4.36 -19 3 C-12.375 0.875 -12.375 0.875 -9 2 C-9 1.34 -9 0.68 -9 0 C-3.375 -1.125 -3.375 -1.125 0 0 Z " fill="#023A5A" transform="translate(238,273)"/>
<path d="M0 0 C-0.33 0.66 -0.66 1.32 -1 2 C-1.99 2 -2.98 2 -4 2 C-4 2.99 -4 3.98 -4 5 C-5.29009643 5.50403768 -6.58213789 6.00309926 -7.875 6.5 C-8.95394531 6.91765625 -8.95394531 6.91765625 -10.0546875 7.34375 C-12 8 -12 8 -14 8 C-14 7.34 -14 6.68 -14 6 C-5.55828221 -1.85276074 -5.55828221 -1.85276074 0 0 Z " fill="#06375A" transform="translate(310,297)"/>
<path d="M0 0 C1.45606519 4.52092968 0.27032841 7.51648796 -1 12 C-6.76044212 11.39363767 -11.72014369 9.24341721 -17 7 C-17 6.67 -17 6.34 -17 6 C-11.58201328 6.69165788 -6.3177215 7.75799248 -1 9 C-1.020625 7.88625 -1.04125 6.7725 -1.0625 5.625 C-1 2 -1 2 0 0 Z " fill="#014161" transform="translate(292,271)"/>
<path d="M0 0 C1.95979427 0.28168297 3.91782378 0.57566717 5.875 0.875 C7.51082031 1.11863281 7.51082031 1.11863281 9.1796875 1.3671875 C12 2 12 2 14 4 C13.67 4.66 13.34 5.32 13 6 C7.32822615 6.45374191 4.4024732 5.65083143 0 2 C0 1.34 0 0.68 0 0 Z " fill="#17D5F2" transform="translate(268,277)"/>
<path d="M0 0 C2.52448827 1.26224414 2.82817664 2.50011016 4 5 C4.33 5.33 4.66 5.66 5 6 C5.04092937 8.33297433 5.04241723 10.66705225 5 13 C3.68 13 2.36 13 1 13 C-0.10228696 8.59085217 -0.07654536 4.51617599 0 0 Z " fill="#1DD0EE" transform="translate(203,361)"/>
<path d="M0 0 C0.99 0.495 0.99 0.495 2 1 C2.8515625 3.72265625 2.8515625 3.72265625 3.625 7.0625 C3.88539063 8.16722656 4.14578125 9.27195312 4.4140625 10.41015625 C4.60742188 11.26480469 4.80078125 12.11945313 5 13 C3.35 13.66 1.7 14.32 0 15 C0 10.05 0 5.1 0 0 Z " fill="#035977" transform="translate(199,361)"/>
<path d="M0 0 C0.33 0 0.66 0 1 0 C1.06058594 0.92683594 1.12117187 1.85367187 1.18359375 2.80859375 C1.26738281 4.00613281 1.35117188 5.20367187 1.4375 6.4375 C1.51871094 7.63246094 1.59992188 8.82742188 1.68359375 10.05859375 C1.67656114 12.88570244 1.67656114 12.88570244 3 14 C3.07258946 16.18639453 3.08373783 18.37500389 3.0625 20.5625 C3.05347656 21.76003906 3.04445312 22.95757812 3.03515625 24.19140625 C3.02355469 25.11824219 3.01195312 26.04507812 3 27 C-0.75196051 21.37205923 -0.13549025 14.61477896 -0.0625 8.0625 C-0.05798828 7.28326172 -0.05347656 6.50402344 -0.04882812 5.70117188 C-0.03716908 3.80074732 -0.01923877 1.90036294 0 0 Z " fill="#22C6E4" transform="translate(158,265)"/>
<path d="M0 0 C0.33 0 0.66 0 1 0 C1.04898438 1.08539063 1.09796875 2.17078125 1.1484375 3.2890625 C1.22351986 4.73439784 1.29906528 6.17970919 1.375 7.625 C1.4059375 8.33785156 1.436875 9.05070312 1.46875 9.78515625 C1.70898404 14.14940792 2.25841814 17.92795608 4 22 C4.66 22.33 5.32 22.66 6 23 C5.67 23.99 5.34 24.98 5 26 C2.53051758 24.83276367 2.53051758 24.83276367 0 23 C-0.56762695 20.5480957 -0.56762695 20.5480957 -0.48828125 17.67578125 C-0.47216797 16.64775391 -0.45605469 15.61972656 -0.43945312 14.56054688 C-0.39755859 13.48869141 -0.35566406 12.41683594 -0.3125 11.3125 C-0.27866211 9.68731445 -0.27866211 9.68731445 -0.24414062 8.02929688 C-0.1851579 5.35148095 -0.10290307 2.67642973 0 0 Z " fill="#22CFED" transform="translate(200,306)"/>
<path d="M0 0 C0 0.99 0 1.98 0 3 C-1.85625 3.4021875 -1.85625 3.4021875 -3.75 3.8125 C-6.50208842 4.4811412 -7.94769485 4.96077114 -10.25 6.6875 C-12 8 -12 8 -14.25 7.6875 C-14.8275 7.460625 -15.405 7.23375 -16 7 C-16 6.34 -16 5.68 -16 5 C-13.89828133 4.1605118 -11.79353375 3.32860344 -9.6875 2.5 C-8.51574219 2.0359375 -7.34398437 1.571875 -6.13671875 1.09375 C-3 0 -3 0 0 0 Z " fill="#034464" transform="translate(195,289)"/>
<path d="M0 0 C1.28264727 3.84794181 0.43727514 4.89272212 -1.25 8.5 C-1.90742188 9.93859375 -1.90742188 9.93859375 -2.578125 11.40625 C-3.85951989 13.74373959 -5.00728364 15.26516458 -7 17 C-7 15.35 -7 13.7 -7 12 C-6.34 12 -5.68 12 -5 12 C-4.67 9.69 -4.34 7.38 -4 5 C-3.01 4.67 -2.02 4.34 -1 4 C-0.26676204 1.98491642 -0.26676204 1.98491642 0 0 Z " fill="#20C9E8" transform="translate(336,299)"/>
<path d="M0 0 C0.99 0.66 1.98 1.32 3 2 C0.03 2 -2.94 2 -6 2 C-6 2.99 -6 3.98 -6 5 C-7.32 5.33 -8.64 5.66 -10 6 C-10 5.34 -10 4.68 -10 4 C-12.31 4.33 -14.62 4.66 -17 5 C-12.50116283 0.50116283 -6.1801071 -0.60589285 0 0 Z " fill="#21C2DF" transform="translate(253,269)"/>
<path d="M0 0 C0.79921875 0.00902344 1.5984375 0.01804687 2.421875 0.02734375 C3.02515625 0.03894531 3.6284375 0.05054688 4.25 0.0625 C4.58 1.0525 4.91 2.0425 5.25 3.0625 C6.57 3.0625 7.89 3.0625 9.25 3.0625 C9.25 3.7225 9.25 4.3825 9.25 5.0625 C8.13625 4.7325 7.0225 4.4025 5.875 4.0625 C0.98545777 2.81820789 -3.73577615 2.87754912 -8.75 3.0625 C-8.75 2.4025 -8.75 1.7425 -8.75 1.0625 C-5.75519083 0.1901588 -3.11424089 -0.04579766 0 0 Z " fill="#034463" transform="translate(251.75,266.9375)"/>
<path d="M0 0 C2.24226443 3.36339665 3.42592747 6.76340552 4.6875 10.5625 C4.92533203 11.24763672 5.16316406 11.93277344 5.40820312 12.63867188 C5.99980093 14.40652572 6.5063209 16.20234149 7 18 C6.67 18.66 6.34 19.32 6 20 C3.41721518 18.70860759 3.10895039 17.63490279 2 15 C1.57001974 13.36766752 1.19671232 11.71957379 0.875 10.0625 C0.62363281 8.81146484 0.62363281 8.81146484 0.3671875 7.53515625 C-0.00211177 4.98541981 -0.06442528 2.57240933 0 0 Z " fill="#034969" transform="translate(159,289)"/>
<path d="M0 0 C0 1.32 0 2.64 0 4 C-3.87684087 5.19287411 -6.91621923 6 -11 6 C-10.4375 4.125 -10.4375 4.125 -9 2 C-5.94821644 0.9100773 -3.25843762 0 0 0 Z " fill="#12D8F3" transform="translate(230,277)"/>
<path d="M0 0 C0.66 0.33 1.32 0.66 2 1 C1 4 1 4 -1.50390625 5.38671875 C-2.51324219 5.81597656 -3.52257812 6.24523437 -4.5625 6.6875 C-5.57441406 7.12449219 -6.58632812 7.56148438 -7.62890625 8.01171875 C-8.41136719 8.33785156 -9.19382812 8.66398437 -10 9 C-10 8.01 -10 7.02 -10 6 C-7.8828125 4.359375 -7.8828125 4.359375 -5.125 2.75 C-3.76761719 1.93789062 -3.76761719 1.93789062 -2.3828125 1.109375 C-1.20332031 0.56023437 -1.20332031 0.56023437 0 0 Z " fill="#4A5C70" transform="translate(120,89)"/>
<path d="M0 0 C3.28817667 0.56692701 4.84731303 1.4559154 7 4 C7.99 5.485 7.99 5.485 9 7 C9.33 7 9.66 7 10 7 C10 8.65 10 10.3 10 12 C5.22864787 8.42148591 2.70923672 5.31427203 0 0 Z " fill="#1CC5E0" transform="translate(173,320)"/>
<path d="M0 0 C0.99 0 1.98 0 3 0 C2.88660796 2.64680904 2.75987127 5.29177518 2.625 7.9375 C2.5940625 8.69224609 2.563125 9.44699219 2.53125 10.22460938 C2.4273685 12.15507395 2.22104386 14.07942081 2 16 C1.34 16.33 0.68 16.66 0 17 C0 11.39 0 5.78 0 0 Z " fill="#1EB4CF" transform="translate(284,309)"/>
<path d="M0 0 C0.99 0.66 1.98 1.32 3 2 C0.6875 4.0625 0.6875 4.0625 -2 6 C-2.99 5.67 -3.98 5.34 -5 5 C-5 5.66 -5 6.32 -5 7 C-7.64 7 -10.28 7 -13 7 C-10.14589666 5.49439503 -7.31875358 4.36783204 -4.25 3.375 C-3.45078125 3.11460937 -2.6515625 2.85421875 -1.828125 2.5859375 C-1.22484375 2.39257812 -0.6215625 2.19921875 0 2 C0 1.34 0 0.68 0 0 Z " fill="#1BB9D5" transform="translate(321,294)"/>
<path d="M0 0 C6.5157967 -0.54298306 11.58350448 0.11622983 17 4 C17.99 5.485 17.99 5.485 19 7 C18.15179688 6.71382813 17.30359375 6.42765625 16.4296875 6.1328125 C13.00711722 5.00235079 9.57150281 3.93005188 6.125 2.875 C4.97257813 2.52179688 3.82015625 2.16859375 2.6328125 1.8046875 C1.76398438 1.53914063 0.89515625 1.27359375 0 1 C0 0.67 0 0.34 0 0 Z " fill="#024A6B" transform="translate(224,326)"/>
<path d="M0 0 C2.97 0.33 5.94 0.66 9 1 C9 1.66 9 2.32 9 3 C9.99 3.33 10.98 3.66 12 4 C8.61725734 5.12758089 7.23221777 4.81750262 3.8125 4.0625 C2.91144531 3.86785156 2.01039063 3.67320312 1.08203125 3.47265625 C0.39496094 3.31667969 -0.29210937 3.16070312 -1 3 C-0.67 2.01 -0.34 1.02 0 0 Z " fill="#0ED9F8" transform="translate(247,270)"/>
<path d="M0 0 C5.86809507 0.52393706 10.54873741 1.76108858 16 4 C15.01 4.66 14.02 5.32 13 6 C13 5.34 13 4.68 13 4 C12.34 4 11.68 4 11 4 C10.67 4.66 10.34 5.32 10 6 C10 5.34 10 4.68 10 4 C7.69 3.67 5.38 3.34 3 3 C3 2.34 3 1.68 3 1 C2.01 0.67 1.02 0.34 0 0 Z " fill="#5C7285" transform="translate(362,84)"/>
<path d="M0 0 C0.33 0.66 0.66 1.32 1 2 C3.02463255 2.65213292 3.02463255 2.65213292 5 3 C5.625 5.3125 5.625 5.3125 6 8 C5.01 9.485 5.01 9.485 4 11 C3.32591692 9.73308493 2.66099503 8.46129251 2 7.1875 C1.62875 6.47980469 1.2575 5.77210938 0.875 5.04296875 C0 3 0 3 0 0 Z " fill="#465B74" transform="translate(86,370)"/>
<path d="M0 0 C0 0.66 0 1.32 0 2 C-3.61973402 3.31626692 -6.09567131 4 -10 4 C-10 4.66 -10 5.32 -10 6 C-12.31 6.33 -14.62 6.66 -17 7 C-13.75791326 3.10949591 -10.87575564 2.13187185 -6 1 C-5.236875 0.79375 -4.47375 0.5875 -3.6875 0.375 C-2 0 -2 0 0 0 Z " fill="#17CDE8" transform="translate(271,329)"/>
<path d="M0 0 C0.33 0.66 0.66 1.32 1 2 C2.97908504 2.83754364 2.97908504 2.83754364 5.3125 3.5 C8.38366227 4.43403943 11.16201661 5.49333605 14 7 C8.99109914 6.38487182 3.99367864 5.7282448 -1 5 C-0.67 3.35 -0.34 1.7 0 0 Z " fill="#1AC3E1" transform="translate(178,294)"/>
<path d="M0 0 C2.64 0 5.28 0 8 0 C8 0.66 8 1.32 8 2 C7.34 2 6.68 2 6 2 C6 2.66 6 3.32 6 4 C4.35 4.33 2.7 4.66 1 5 C0.67 3.35 0.34 1.7 0 0 Z " fill="#21CFED" transform="translate(210,283)"/>
<path d="M0 0 C2.77643441 2.35996925 4.31420364 5.12962594 6.03515625 8.28125 C6.94447862 9.90109552 7.96957564 11.45436346 9 13 C7.0625 12.6875 7.0625 12.6875 5 12 C4.67 11.01 4.34 10.02 4 9 C3.01 8.67 2.02 8.34 1 8 C1.33 6.68 1.66 5.36 2 4 C1.34 4 0.68 4 0 4 C0 2.68 0 1.36 0 0 Z " fill="#034063" transform="translate(168,313)"/>
<path d="M0 0 C-2.60014527 1.03227862 -5.20426369 2.05105152 -7.8125 3.0625 C-8.55048828 3.35705078 -9.28847656 3.65160156 -10.04882812 3.95507812 C-15.66015625 6.11328125 -15.66015625 6.11328125 -19 5 C-18.67 4.34 -18.34 3.68 -18 3 C-16.33547652 2.46735248 -14.66545414 1.94621513 -12.97265625 1.51171875 C-11.06586278 1.0170852 -9.18757438 0.41633751 -7.3125 -0.1875 C-4.07562733 -0.9814499 -3.03224991 -0.93147546 0 0 Z " fill="#25BFDE" transform="translate(198,288)"/>
<path d="M0 0 C1.98 0.99 1.98 0.99 4 2 C4.33 1.67 4.66 1.34 5 1 C5.99 1.33 6.98 1.66 8 2 C8.33 3.65 8.66 5.3 9 7 C7.35 6.67 5.7 6.34 4 6 C4 5.34 4 4.68 4 4 C3.34 4 2.68 4 2 4 C2 3.34 2 2.68 2 2 C1.34 2 0.68 2 0 2 C0 1.34 0 0.68 0 0 Z " fill="#42566C" transform="translate(100,394)"/>
<path d="M0 0 C0 3 0 3 -2.125 5.625 C-5.25090158 8.20726652 -7.01781501 8.72217314 -11 9 C-7.67149253 5.40521193 -4.01028669 2.77635232 0 0 Z " fill="#024363" transform="translate(314,334)"/>
<path d="M0 0 C2.31 0.33 4.62 0.66 7 1 C5.35 2.98 3.7 4.96 2 7 C0.68 6.34 -0.64 5.68 -2 5 C-1.34 4.67 -0.68 4.34 0 4 C0.66 4.33 1.32 4.66 2 5 C1.34 3.35 0.68 1.7 0 0 Z " fill="#023F5E" transform="translate(249,332)"/>
<path d="M0 0 C0.33 0 0.66 0 1 0 C1.44539877 8.7595092 1.44539877 8.7595092 -2 13 C-2.66 13 -3.32 13 -4 13 C-3.52140759 11.39566191 -3.04210442 9.79153584 -2.5625 8.1875 C-2.29566406 7.29417969 -2.02882813 6.40085937 -1.75390625 5.48046875 C-1.19612127 3.64526945 -0.60655425 1.81966274 0 0 Z " fill="#04496A" transform="translate(338,296)"/>
<path d="M0 0 C0.33 0 0.66 0 1 0 C1.33 2.64 1.66 5.28 2 8 C3.65 7.67 5.3 7.34 7 7 C6.67 8.65 6.34 10.3 6 12 C3.97954558 11.39816251 1.97888961 10.72693904 0 10 C-1.6415049 6.7169902 -0.51888624 3.57454967 0 0 Z " fill="#033958" transform="translate(193,369)"/>
<path d="M0 0 C-1.70828921 2.10633718 -2.52148416 2.93801608 -5.26171875 3.29296875 C-6.06222656 3.25816406 -6.86273438 3.22335937 -7.6875 3.1875 C-8.49574219 3.16042969 -9.30398438 3.13335937 -10.13671875 3.10546875 C-10.75160156 3.07066406 -11.36648438 3.03585937 -12 3 C-7.97869817 0.31913211 -4.73968522 -1.57989507 0 0 Z " fill="#19C9E0" transform="translate(299,306)"/>
<path d="M0 0 C1.41791408 0.45445964 2.83428046 0.91374944 4.25 1.375 C5.43335938 1.75785156 5.43335938 1.75785156 6.640625 2.1484375 C9 3 9 3 13 5 C8.545 5.495 8.545 5.495 4 6 C4 5.01 4 4.02 4 3 C2.68 2.67 1.36 2.34 0 2 C0 1.34 0 0.68 0 0 Z " fill="#044761" transform="translate(261,278)"/>
<path d="M0 0 C0.33 0 0.66 0 1 0 C1 5.28 1 10.56 1 16 C-0.32 16.33 -1.64 16.66 -3 17 C-3 16.01 -3 15.02 -3 14 C-2.01 14 -1.02 14 0 14 C0 9.38 0 4.76 0 0 Z " fill="#32CBE6" transform="translate(198,361)"/>
<path d="M0 0 C0.33 0 0.66 0 1 0 C1 1.65 1 3.3 1 5 C1.99 5 2.98 5 4 5 C4 8.50935186 3.62457273 11.56484998 3 15 C1.08697693 11.73386305 0.64325339 9.00554752 0.375 5.25 C0.30023438 4.26515625 0.22546875 3.2803125 0.1484375 2.265625 C0.09945312 1.51796875 0.05046875 0.7703125 0 0 Z " fill="#68768A" transform="translate(83,355)"/>
<path d="M0 0 C0.33 0 0.66 0 1 0 C1.3125 2.3125 1.3125 2.3125 1 5 C-1.25 6.6875 -1.25 6.6875 -4 8 C-4.763125 8.391875 -5.52625 8.78375 -6.3125 9.1875 C-6.869375 9.455625 -7.42625 9.72375 -8 10 C-8.66 9.34 -9.32 8.68 -10 8 C-8.35 7.67 -6.7 7.34 -5 7 C-4.67 6.01 -4.34 5.02 -4 4 C-2.68 4 -1.36 4 0 4 C0 2.68 0 1.36 0 0 Z " fill="#27BED9" transform="translate(193,324)"/>
<path d="M0 0 C0.33 1.32 0.66 2.64 1 4 C0.34 4 -0.32 4 -1 4 C-1.061875 4.94875 -1.12375 5.8975 -1.1875 6.875 C-1.455625 7.90625 -1.72375 8.9375 -2 10 C-3.65 10.66 -5.3 11.32 -7 12 C-4.69 8.04 -2.38 4.08 0 0 Z " fill="#024666" transform="translate(331,313)"/>
<path d="M0 0 C0.99 0 1.98 0 3 0 C3.185625 1.11375 3.185625 1.11375 3.375 2.25 C3.86889456 4.97537272 3.86889456 4.97537272 5.125 7.125 C6 9 6 9 5 12 C0.57142857 4.71428571 0.57142857 4.71428571 0 0 Z " fill="#22C7E4" transform="translate(165,304)"/>
<path d="M0 0 C1.60495567 0.11442461 3.20898119 0.24194694 4.8125 0.375 C5.70582031 0.44460938 6.59914063 0.51421875 7.51953125 0.5859375 C10 1 10 1 13 3 C13 3.66 13 4.32 13 5 C11.39402675 4.54803755 9.79027492 4.08817673 8.1875 3.625 C6.84751953 3.24214844 6.84751953 3.24214844 5.48046875 2.8515625 C3 2 3 2 0 0 Z " fill="#03526D" transform="translate(261,272)"/>
<path d="M0 0 C0.99 0.33 1.98 0.66 3 1 C-1.455 4.465 -1.455 4.465 -6 8 C-6.33 7.01 -6.66 6.02 -7 5 C-6.01 5 -5.02 5 -4 5 C-4 4.01 -4 3.02 -4 2 C-2.68 2 -1.36 2 0 2 C0 1.34 0 0.68 0 0 Z " fill="#23C4DE" transform="translate(316,330)"/>
<path d="M0 0 C1.32 0 2.64 0 4 0 C4.33 0.99 4.66 1.98 5 3 C3.35 3.33 1.7 3.66 0 4 C0 4.66 0 5.32 0 6 C-0.66 6 -1.32 6 -2 6 C-1.34 4.02 -0.68 2.04 0 0 Z " fill="#062645" transform="translate(311,293)"/>
<path d="M0 0 C4.0369867 1.79421631 6.64480474 3.20551875 9 7 C8.01 7 7.02 7 6 7 C6 6.34 6 5.68 6 5 C4.68 5.33 3.36 5.66 2 6 C2 4.68 2 3.36 2 2 C1.34 2 0.68 2 0 2 C0 1.34 0 0.68 0 0 Z " fill="#21CAE6" transform="translate(240,332)"/>
<path d="M0 0 C-1.4096347 0.70180531 -2.82807641 1.38593958 -4.25 2.0625 C-5.03890625 2.44535156 -5.8278125 2.82820313 -6.640625 3.22265625 C-9.25993522 4.08564091 -10.44855176 3.93045933 -13 3 C-11.5903653 2.29819469 -10.17192359 1.61406042 -8.75 0.9375 C-7.96109375 0.55464844 -7.1721875 0.17179687 -6.359375 -0.22265625 C-3.74006478 -1.08564091 -2.55144824 -0.93045933 0 0 Z " fill="#034A6A" transform="translate(241,279)"/>
<path d="M0 0 C0.33 0 0.66 0 1 0 C1 2.31 1 4.62 1 7 C1.99 7 2.98 7 4 7 C4 7.66 4 8.32 4 9 C2.35 9 0.7 9 -1 9 C-0.67 6.03 -0.34 3.06 0 0 Z " fill="#29B4D0" transform="translate(186,365)"/>
<path d="M0 0 C-7.71428571 4 -7.71428571 4 -12 4 C-11.67 3.01 -11.34 2.02 -11 1 C-7.27569643 0.30710631 -3.78916254 -0.11144596 0 0 Z " fill="#023F61" transform="translate(296,305)"/>
<path d="M0 0 C0 0.66 0 1.32 0 2 C-0.66 2 -1.32 2 -2 2 C-2 2.66 -2 3.32 -2 4 C-3.98 4 -5.96 4 -8 4 C-7.67 3.01 -7.34 2.02 -7 1 C-4.52260646 0.09162237 -2.66420516 0 0 0 Z " fill="#10D8F3" transform="translate(243,273)"/>
<path d="M0 0 C1.32 0 2.64 0 4 0 C4 2.31 4 4.62 4 7 C2.35 5.35 0.7 3.7 -1 2 C-0.67 1.34 -0.34 0.68 0 0 Z " fill="#384B61" transform="translate(96,387)"/>
<path d="M0 0 C2.29013653 3.4352048 2.17842973 4.985331 2 9 C1.67 8.34 1.34 7.68 1 7 C0.34 7 -0.32 7 -1 7 C-1.04254356 5.00045254 -1.04080783 2.99958364 -1 1 C-0.67 0.67 -0.34 0.34 0 0 Z " fill="#0F243F" transform="translate(413,131)"/>
<path d="M0 0 C3.48331435 3.01887244 4.79157144 5.56909529 6 10 C4.68 9.34 3.36 8.68 2 8 C2.33 7.01 2.66 6.02 3 5 C2.34 5 1.68 5 1 5 C0.67 3.35 0.34 1.7 0 0 Z " fill="#687887" transform="translate(405,112)"/>
<path d="M0 0 C-1.75 2.0625 -1.75 2.0625 -4 4 C-6.25 3.75 -6.25 3.75 -8 3 C-8 2.34 -8 1.68 -8 1 C-5.07175348 0.02391783 -3.04386724 -0.08226668 0 0 Z " fill="#013D5C" transform="translate(187,293)"/>
<path d="M0 0 C0 0.66 0 1.32 0 2 C-2.8125 3.125 -2.8125 3.125 -6 4 C-6.99 3.34 -7.98 2.68 -9 2 C-5.62902617 0.50178941 -3.79557881 0 0 0 Z " fill="#034061" transform="translate(228,283)"/>
<path d="M0 0 C1.98 0 3.96 0 6 0 C6 0.99 6 1.98 6 3 C3.69 2.67 1.38 2.34 -1 2 C-0.67 1.34 -0.34 0.68 0 0 Z " fill="#16D9F5" transform="translate(283,283)"/>
<path d="M0 0 C2.9719385 1.12451727 5.33440687 2.22293791 8 4 C7.67 4.66 7.34 5.32 7 6 C2.32307692 4.52307692 2.32307692 4.52307692 0.6875 1.875 C0.460625 1.25625 0.23375 0.6375 0 0 Z " fill="#607284" transform="translate(382,91)"/>
<path d="M0 0 C1.32 0.33 2.64 0.66 4 1 C4.66 3.31 5.32 5.62 6 8 C1.125 3.375 1.125 3.375 0 0 Z " fill="#20BDD9" transform="translate(173,320)"/>
<path d="M0 0 C0.99 0.66 1.98 1.32 3 2 C1.35 3.32 -0.3 4.64 -2 6 C-2.66 5.34 -3.32 4.68 -4 4 C-2.68 3.34 -1.36 2.68 0 2 C0 1.34 0 0.68 0 0 Z " fill="#16C1E4" transform="translate(321,294)"/>
<path d="M0 0 C2.38564077 0.57584432 4.66682784 1.22227595 7 2 C7 2.66 7 3.32 7 4 C4.03 3.505 4.03 3.505 1 3 C0.67 2.01 0.34 1.02 0 0 Z " fill="#0FD9F8" transform="translate(268,277)"/>
<path d="M0 0 C2.97 0 5.94 0 9 0 C9 0.99 9 1.98 9 3 C2.84765625 2.4140625 2.84765625 2.4140625 1 2 C0.67 1.34 0.34 0.68 0 0 Z " fill="#0D263D" transform="translate(353,84)"/>
</svg>
